<mxfile host="Electron" modified="2024-08-17T05:42:20.834Z" agent="Mozilla/5.0 (Windows NT 10.0; Win64; x64) AppleWebKit/537.36 (KHTML, like Gecko) draw.io/24.2.5 Chrome/120.0.6099.109 Electron/28.1.0 Safari/537.36" etag="iaD-xYPyhQTEZ0BHWBBS" version="24.2.5" type="device">
  <diagram name="第 1 页" id="9u-_j_7cOrRBVTf99aU5">
    <mxGraphModel dx="2193" dy="836" grid="1" gridSize="10" guides="1" tooltips="1" connect="1" arrows="1" fold="1" page="1" pageScale="1" pageWidth="827" pageHeight="1169" math="0" shadow="0">
      <root>
        <mxCell id="0" />
        <mxCell id="1" parent="0" />
        <mxCell id="CZccDyaRGM5HcXmYwAl6-1" value="活字格-前端&lt;div&gt;展示&lt;/div&gt;" style="rounded=0;whiteSpace=wrap;html=1;" parent="1" vertex="1">
          <mxGeometry x="60" y="158" width="120" height="60" as="geometry" />
        </mxCell>
        <mxCell id="CZccDyaRGM5HcXmYwAl6-2" value="mongodb数据库" style="rounded=0;whiteSpace=wrap;html=1;" parent="1" vertex="1">
          <mxGeometry x="354" y="158" width="120" height="60" as="geometry" />
        </mxCell>
        <mxCell id="CZccDyaRGM5HcXmYwAl6-6" value="data-transfer服务" style="rounded=0;whiteSpace=wrap;html=1;" parent="1" vertex="1">
          <mxGeometry x="314" y="350" width="200" height="60" as="geometry" />
        </mxCell>
        <mxCell id="CZccDyaRGM5HcXmYwAl6-8" value="dolphindb-计算引擎" style="rounded=0;whiteSpace=wrap;html=1;" parent="1" vertex="1">
          <mxGeometry x="730" y="589" width="120" height="60" as="geometry" />
        </mxCell>
        <mxCell id="CZccDyaRGM5HcXmYwAl6-9" value="" style="endArrow=classic;startArrow=classic;html=1;rounded=0;exitX=0.5;exitY=0;exitDx=0;exitDy=0;entryX=0.5;entryY=1;entryDx=0;entryDy=0;" parent="1" source="CZccDyaRGM5HcXmYwAl6-6" target="CZccDyaRGM5HcXmYwAl6-2" edge="1">
          <mxGeometry width="50" height="50" relative="1" as="geometry">
            <mxPoint x="370" y="330" as="sourcePoint" />
            <mxPoint x="410" y="280" as="targetPoint" />
          </mxGeometry>
        </mxCell>
        <mxCell id="CZccDyaRGM5HcXmYwAl6-11" value="nats-中间件" style="rounded=0;whiteSpace=wrap;html=1;" parent="1" vertex="1">
          <mxGeometry x="354" y="593" width="120" height="60" as="geometry" />
        </mxCell>
        <mxCell id="CZccDyaRGM5HcXmYwAl6-13" value="" style="endArrow=classic;startArrow=classic;html=1;rounded=0;exitX=0.5;exitY=0;exitDx=0;exitDy=0;entryX=0.5;entryY=1;entryDx=0;entryDy=0;" parent="1" source="CZccDyaRGM5HcXmYwAl6-11" target="CZccDyaRGM5HcXmYwAl6-6" edge="1">
          <mxGeometry width="50" height="50" relative="1" as="geometry">
            <mxPoint x="412" y="550" as="sourcePoint" />
            <mxPoint x="414" y="540" as="targetPoint" />
          </mxGeometry>
        </mxCell>
        <mxCell id="kFK4yUDLX-uipJqZ3Mh1-31" value="协议转换" style="edgeLabel;html=1;align=center;verticalAlign=middle;resizable=0;points=[];" vertex="1" connectable="0" parent="CZccDyaRGM5HcXmYwAl6-13">
          <mxGeometry x="-0.0383" y="-3" relative="1" as="geometry">
            <mxPoint as="offset" />
          </mxGeometry>
        </mxCell>
        <mxCell id="CZccDyaRGM5HcXmYwAl6-17" value="" style="endArrow=classic;startArrow=classic;html=1;rounded=0;exitX=1;exitY=0.5;exitDx=0;exitDy=0;" parent="1" source="CZccDyaRGM5HcXmYwAl6-1" edge="1">
          <mxGeometry width="50" height="50" relative="1" as="geometry">
            <mxPoint x="300" y="238" as="sourcePoint" />
            <mxPoint x="350" y="188" as="targetPoint" />
          </mxGeometry>
        </mxCell>
        <mxCell id="CZccDyaRGM5HcXmYwAl6-18" value="JS" style="edgeLabel;html=1;align=center;verticalAlign=middle;resizable=0;points=[];" parent="CZccDyaRGM5HcXmYwAl6-17" vertex="1" connectable="0">
          <mxGeometry x="0.1059" relative="1" as="geometry">
            <mxPoint as="offset" />
          </mxGeometry>
        </mxCell>
        <mxCell id="CZccDyaRGM5HcXmYwAl6-19" value="OMS-策略引擎" style="rounded=0;whiteSpace=wrap;html=1;" parent="1" vertex="1">
          <mxGeometry x="355" y="808" width="120" height="60" as="geometry" />
        </mxCell>
        <mxCell id="CZccDyaRGM5HcXmYwAl6-20" value="" style="endArrow=classic;startArrow=classic;html=1;rounded=0;entryX=0.5;entryY=1;entryDx=0;entryDy=0;exitX=0.5;exitY=0;exitDx=0;exitDy=0;" parent="1" edge="1" target="CZccDyaRGM5HcXmYwAl6-11" source="CZccDyaRGM5HcXmYwAl6-19">
          <mxGeometry width="50" height="50" relative="1" as="geometry">
            <mxPoint x="413.5" y="770" as="sourcePoint" />
            <mxPoint x="414" y="710" as="targetPoint" />
          </mxGeometry>
        </mxCell>
        <mxCell id="kFK4yUDLX-uipJqZ3Mh1-4" value="1. 跨越机房--websocket&lt;div&gt;2. 不用跨越机房--mongodb&lt;/div&gt;" style="shape=note;whiteSpace=wrap;html=1;backgroundOutline=1;darkOpacity=0.05;fillColor=#fff2cc;strokeColor=#d6b656;" vertex="1" parent="1">
          <mxGeometry x="-200" y="330" width="180" height="90" as="geometry" />
        </mxCell>
        <mxCell id="kFK4yUDLX-uipJqZ3Mh1-5" value="websocket" style="rounded=0;whiteSpace=wrap;html=1;" vertex="1" parent="1">
          <mxGeometry x="10" y="362.5" width="80" height="35" as="geometry" />
        </mxCell>
        <mxCell id="kFK4yUDLX-uipJqZ3Mh1-8" value="" style="endArrow=classic;html=1;rounded=0;exitX=1;exitY=0.5;exitDx=0;exitDy=0;" edge="1" parent="1" source="kFK4yUDLX-uipJqZ3Mh1-5">
          <mxGeometry width="50" height="50" relative="1" as="geometry">
            <mxPoint x="500" y="540" as="sourcePoint" />
            <mxPoint x="180" y="380" as="targetPoint" />
          </mxGeometry>
        </mxCell>
        <mxCell id="kFK4yUDLX-uipJqZ3Mh1-22" value="引入" style="edgeLabel;html=1;align=center;verticalAlign=middle;resizable=0;points=[];" vertex="1" connectable="0" parent="kFK4yUDLX-uipJqZ3Mh1-8">
          <mxGeometry x="0.236" relative="1" as="geometry">
            <mxPoint as="offset" />
          </mxGeometry>
        </mxCell>
        <mxCell id="kFK4yUDLX-uipJqZ3Mh1-9" value="行情-柜台" style="rounded=1;whiteSpace=wrap;html=1;" vertex="1" parent="1">
          <mxGeometry x="-40" y="598" width="90" height="50" as="geometry" />
        </mxCell>
        <mxCell id="kFK4yUDLX-uipJqZ3Mh1-11" value="" style="endArrow=classic;html=1;rounded=0;exitX=1;exitY=0.75;exitDx=0;exitDy=0;entryX=0;entryY=0.75;entryDx=0;entryDy=0;" edge="1" parent="1" source="CZccDyaRGM5HcXmYwAl6-11" target="kFK4yUDLX-uipJqZ3Mh1-26">
          <mxGeometry width="50" height="50" relative="1" as="geometry">
            <mxPoint x="480" y="850" as="sourcePoint" />
            <mxPoint x="590" y="638" as="targetPoint" />
            <Array as="points" />
          </mxGeometry>
        </mxCell>
        <mxCell id="kFK4yUDLX-uipJqZ3Mh1-21" value="交易数据" style="edgeLabel;html=1;align=center;verticalAlign=middle;resizable=0;points=[];" vertex="1" connectable="0" parent="kFK4yUDLX-uipJqZ3Mh1-11">
          <mxGeometry x="-0.2821" y="2" relative="1" as="geometry">
            <mxPoint as="offset" />
          </mxGeometry>
        </mxCell>
        <mxCell id="kFK4yUDLX-uipJqZ3Mh1-12" value="" style="endArrow=classic;html=1;rounded=0;exitX=1;exitY=0.5;exitDx=0;exitDy=0;entryX=0;entryY=0.5;entryDx=0;entryDy=0;" edge="1" parent="1" source="kFK4yUDLX-uipJqZ3Mh1-9" target="kFK4yUDLX-uipJqZ3Mh1-14">
          <mxGeometry width="50" height="50" relative="1" as="geometry">
            <mxPoint x="300" y="783" as="sourcePoint" />
            <mxPoint x="190" y="623" as="targetPoint" />
          </mxGeometry>
        </mxCell>
        <mxCell id="kFK4yUDLX-uipJqZ3Mh1-13" value="" style="endArrow=classic;html=1;rounded=0;exitX=1;exitY=0.25;exitDx=0;exitDy=0;entryX=-0.033;entryY=0.378;entryDx=0;entryDy=0;entryPerimeter=0;" edge="1" parent="1" source="CZccDyaRGM5HcXmYwAl6-11" target="kFK4yUDLX-uipJqZ3Mh1-26">
          <mxGeometry width="50" height="50" relative="1" as="geometry">
            <mxPoint x="474" y="623" as="sourcePoint" />
            <mxPoint x="590" y="608" as="targetPoint" />
          </mxGeometry>
        </mxCell>
        <mxCell id="kFK4yUDLX-uipJqZ3Mh1-20" value="行情数据" style="edgeLabel;html=1;align=center;verticalAlign=middle;resizable=0;points=[];" vertex="1" connectable="0" parent="kFK4yUDLX-uipJqZ3Mh1-13">
          <mxGeometry x="0.1075" y="-1" relative="1" as="geometry">
            <mxPoint as="offset" />
          </mxGeometry>
        </mxCell>
        <mxCell id="kFK4yUDLX-uipJqZ3Mh1-14" value="行情转化器" style="rounded=1;whiteSpace=wrap;html=1;" vertex="1" parent="1">
          <mxGeometry x="150" y="598" width="70" height="50" as="geometry" />
        </mxCell>
        <mxCell id="kFK4yUDLX-uipJqZ3Mh1-15" value="" style="endArrow=classic;html=1;rounded=0;exitX=1;exitY=0.5;exitDx=0;exitDy=0;" edge="1" parent="1" source="kFK4yUDLX-uipJqZ3Mh1-14">
          <mxGeometry width="50" height="50" relative="1" as="geometry">
            <mxPoint x="310" y="673" as="sourcePoint" />
            <mxPoint x="350" y="623" as="targetPoint" />
          </mxGeometry>
        </mxCell>
        <mxCell id="kFK4yUDLX-uipJqZ3Mh1-29" value="行情数据" style="edgeLabel;html=1;align=center;verticalAlign=middle;resizable=0;points=[];" vertex="1" connectable="0" parent="kFK4yUDLX-uipJqZ3Mh1-15">
          <mxGeometry x="-0.0462" y="-1" relative="1" as="geometry">
            <mxPoint as="offset" />
          </mxGeometry>
        </mxCell>
        <mxCell id="kFK4yUDLX-uipJqZ3Mh1-16" value="交易-柜台" style="rounded=1;whiteSpace=wrap;html=1;" vertex="1" parent="1">
          <mxGeometry x="-41" y="808" width="90" height="50" as="geometry" />
        </mxCell>
        <mxCell id="kFK4yUDLX-uipJqZ3Mh1-17" value="" style="endArrow=classic;html=1;rounded=0;exitX=1;exitY=0.5;exitDx=0;exitDy=0;entryX=0.033;entryY=0.417;entryDx=0;entryDy=0;entryPerimeter=0;" edge="1" parent="1" source="kFK4yUDLX-uipJqZ3Mh1-16" target="CZccDyaRGM5HcXmYwAl6-19">
          <mxGeometry width="50" height="50" relative="1" as="geometry">
            <mxPoint x="309" y="888" as="sourcePoint" />
            <mxPoint x="349" y="838" as="targetPoint" />
          </mxGeometry>
        </mxCell>
        <mxCell id="kFK4yUDLX-uipJqZ3Mh1-28" value="交易数据" style="edgeLabel;html=1;align=center;verticalAlign=middle;resizable=0;points=[];" vertex="1" connectable="0" parent="kFK4yUDLX-uipJqZ3Mh1-17">
          <mxGeometry x="-0.1934" y="-2" relative="1" as="geometry">
            <mxPoint as="offset" />
          </mxGeometry>
        </mxCell>
        <mxCell id="kFK4yUDLX-uipJqZ3Mh1-18" value="" style="endArrow=classic;html=1;rounded=0;exitX=0.5;exitY=0;exitDx=0;exitDy=0;" edge="1" parent="1" source="CZccDyaRGM5HcXmYwAl6-8">
          <mxGeometry width="50" height="50" relative="1" as="geometry">
            <mxPoint x="780" y="510" as="sourcePoint" />
            <mxPoint x="510" y="380" as="targetPoint" />
            <Array as="points">
              <mxPoint x="790" y="380" />
            </Array>
          </mxGeometry>
        </mxCell>
        <mxCell id="kFK4yUDLX-uipJqZ3Mh1-25" value="聚合数据" style="edgeLabel;html=1;align=center;verticalAlign=middle;resizable=0;points=[];" vertex="1" connectable="0" parent="kFK4yUDLX-uipJqZ3Mh1-18">
          <mxGeometry x="-0.2577" y="-1" relative="1" as="geometry">
            <mxPoint as="offset" />
          </mxGeometry>
        </mxCell>
        <mxCell id="kFK4yUDLX-uipJqZ3Mh1-19" value="1. 策略管理-下发&lt;div&gt;2. 交易数据展示&lt;/div&gt;" style="shape=note;whiteSpace=wrap;html=1;backgroundOutline=1;darkOpacity=0.05;fillColor=#fff2cc;strokeColor=#d6b656;" vertex="1" parent="1">
          <mxGeometry x="550" y="138" width="180" height="90" as="geometry" />
        </mxCell>
        <mxCell id="kFK4yUDLX-uipJqZ3Mh1-23" value="跨越机房" style="rhombus;whiteSpace=wrap;html=1;" vertex="1" parent="1">
          <mxGeometry x="180" y="350" width="66" height="60" as="geometry" />
        </mxCell>
        <mxCell id="kFK4yUDLX-uipJqZ3Mh1-24" value="" style="endArrow=classic;html=1;rounded=0;" edge="1" parent="1">
          <mxGeometry width="50" height="50" relative="1" as="geometry">
            <mxPoint x="250" y="380" as="sourcePoint" />
            <mxPoint x="310" y="380" as="targetPoint" />
          </mxGeometry>
        </mxCell>
        <mxCell id="kFK4yUDLX-uipJqZ3Mh1-26" value="dolphindb&lt;div&gt;write&lt;/div&gt;" style="rounded=0;whiteSpace=wrap;html=1;" vertex="1" parent="1">
          <mxGeometry x="600" y="578" width="60" height="82" as="geometry" />
        </mxCell>
        <mxCell id="kFK4yUDLX-uipJqZ3Mh1-27" value="" style="endArrow=classic;html=1;rounded=0;exitX=1;exitY=0.5;exitDx=0;exitDy=0;entryX=0;entryY=0.5;entryDx=0;entryDy=0;" edge="1" parent="1" source="kFK4yUDLX-uipJqZ3Mh1-26" target="CZccDyaRGM5HcXmYwAl6-8">
          <mxGeometry width="50" height="50" relative="1" as="geometry">
            <mxPoint x="670" y="710" as="sourcePoint" />
            <mxPoint x="720" y="660" as="targetPoint" />
          </mxGeometry>
        </mxCell>
        <mxCell id="kFK4yUDLX-uipJqZ3Mh1-32" value="1. 策略管理数据下行&lt;div&gt;2. 交易，行情数据上行&lt;/div&gt;" style="shape=note;whiteSpace=wrap;html=1;backgroundOutline=1;darkOpacity=0.05;fillColor=#fff2cc;strokeColor=#d6b656;" vertex="1" parent="1">
          <mxGeometry x="460" y="460" width="160" height="70" as="geometry" />
        </mxCell>
        <mxCell id="kFK4yUDLX-uipJqZ3Mh1-33" value="C++服务&lt;div&gt;nats-sdk&lt;/div&gt;&lt;div&gt;dolphin-client&lt;/div&gt;&lt;div&gt;OMS&lt;/div&gt;&lt;div&gt;策略引擎&lt;/div&gt;" style="shape=note;whiteSpace=wrap;html=1;backgroundOutline=1;darkOpacity=0.05;fillColor=#fff2cc;strokeColor=#d6b656;" vertex="1" parent="1">
          <mxGeometry x="514" y="794.5" width="160" height="87" as="geometry" />
        </mxCell>
      </root>
    </mxGraphModel>
  </diagram>
</mxfile>
